# xmcd
#
# Track frame offsets: 
#        150
#        19810
#        40851
#        57570
#        77378
#        88813
#        109950
#        123880
#        138769
#        160738
#        174246
#        188733
#        205487
#
# Disc length: 3049 seconds
#
# Revision: 2
# Processed by: cddbd v1.5.1PL0 Copyright (c) Steve Scherf et al.
# Submitted via: ExactAudioCopy v0.95a5
#
DISCID=a50be70d
DTITLE=Guy Forsyth - Can You Live Without
DYEAR=1999
DGENRE=Blues
TTITLE0=Calico Girl
TTITLE1=Children of Jack
TTITLE2=If I was sick
TTITLE3=Can you live without
TTITLE4=Don't you mind people grinnin' in your face
TTITLE5=New monkey king
TTITLE6=Tattle tale
TTITLE7=Leave me alone
TTITLE8=Heart of sawdust
TTITLE9=Faith
TTITLE10=I like it when she 's easy
TTITLE11=True friends
TTITLE12=Thibideaux Furlough (Bonus Track)
EXTD=YEAR: 1999
EXTT0=
EXTT1=
EXTT2=
EXTT3=
EXTT4=
EXTT5=
EXTT6=
EXTT7=
EXTT8=
EXTT9=
EXTT10=
EXTT11=
EXTT12=
PLAYORDER=
